<?xml version="1.0" encoding="utf-8"?>
<!-- Generator: Adobe Illustrator 15.0.0, SVG Export Plug-In . SVG Version: 6.00 Build 0)  -->
<!DOCTYPE svg PUBLIC "-//W3C//DTD SVG 1.1//EN" "http://www.w3.org/Graphics/SVG/1.1/DTD/svg11.dtd">
<svg version="1.1" id="Layer_1" xmlns="http://www.w3.org/2000/svg" xmlns:xlink="http://www.w3.org/1999/xlink" x="0px" y="0px"
	 width="282px" height="230.922px" viewBox="0 0 282 230.922" enable-background="new 0 0 282 230.922" xml:space="preserve">
<g>
	<path fill="#FFFFFF" stroke="#FFFFFF" stroke-width="3.4598" stroke-miterlimit="10" d="M19.422,102.185
		c-2.087,3.088-4.259,6.113-6.607,9.008c-1.603,1.977-5.041,6.912-8.036,6.557c-4.605-0.55,2.422-15.945,3.702-18.065
		c6.564-10.879,18.131-17.84,29.871-21.935c14.561-5.077,31.209-6.781,46.37-3.62c6.413,1.337,14.502,3.849,17.924,9.973
		c3.49,6.244-0.598,14.134-4.49,19.201c-7.899,10.284-20.894,15.926-33.337,18.26c5.289-0.905,11.616-0.688,15.726,3.23
		c5.289,5.041,4.555,13.848,2.467,20.176c-4.09,12.396-14.27,22.188-25.882,27.701c-13.843,6.571-25.579,6.723-40.489,4.639
		c0,0-11.115-0.822-7.25-15.809c0.748-2.9,3.552-16.011,5.958-23.854c2.293-7.475,4.959-14.878,8.524-21.851
		c3.222-6.301,3.696-8.323,10.113-11.763c2.464-1.32,5.589-2.429,8.177-0.79c0.833,0.528,2.06,1.638,2.288,2.65
		c0.149,0.661-2.631,3.552-3.018,4.112c-4.379,6.324-4.312,7.644-6.75,14.925c-2.589,7.734-4.604,15.643-6.408,23.593
		c-0.844,3.724-1.632,7.458-2.325,11.211c-0.299,1.623-0.652,3.243-0.674,4.897c-0.026,1.965,0.726,2.166,2.461,2.379
		c11.771,1.455,24.658-1.317,33.781-9.199c5.074-4.383,8.482-10.186,9.74-16.785c0.609-3.191,0.54-6.458-2.145-8.708
		c-2.586-2.168-6.253-2.504-9.476-2.79c-5.679-0.504-16.379-0.393-13.685-9.045c1.056-3.389,4.6-3.956,7.695-4.369
		c3.861-0.515,7.732-0.801,11.518-1.78c6.672-1.726,13.256-5.132,18.048-10.151c3.117-3.265,7.907-10.243,4.425-14.718
		c-2.59-3.328-7.851-3.983-11.75-4.322c-7.312-0.636-14.672,0.233-21.862,1.553c-7.693,1.414-15.273,3.438-22.357,6.811
		c-3.035,1.445-6.006,3.087-8.643,5.185C21.719,99.739,20.495,100.896,19.422,102.185"/>
	<path fill="#FFFFFF" stroke="#FFFFFF" stroke-width="2.6204" stroke-miterlimit="10" d="M91.756,145.515
		c0.224-1.27,0.558-2.758,1.005-4.471c0.446-1.711,0.96-3.525,1.543-5.443c0.583-1.916,1.217-3.877,1.902-5.881
		c0.686-2.004,1.489-4.155,2.414-6.451c0.924-2.297,1.708-4.214,2.354-5.75c0.646-1.537,1.246-2.814,1.799-3.831
		c0.35-0.675,0.677-1.22,0.981-1.636c0.303-0.415,0.63-0.757,0.981-1.028c0.35-0.269,0.761-0.479,1.235-0.631
		c0.474-0.15,1.051-0.285,1.736-0.402c0.772-0.132,1.368-0.198,1.787-0.2c0.418-0.001,0.707,0.117,0.867,0.355
		c0.159,0.239,0.216,0.613,0.169,1.125c-0.046,0.511-0.149,1.214-0.307,2.107c-0.188,1.066-0.53,2.591-1.023,4.579
		c-0.496,1.985-0.842,3.708-1.042,5.168l0.49-0.084c0.797-1.255,1.808-2.896,3.03-4.922c1.222-2.026,2.433-3.743,3.633-5.15
		c1.199-1.407,2.499-2.643,3.896-3.707c1.398-1.064,2.915-1.736,4.55-2.016c0.564-0.096,1.098-0.096,1.599-0.001
		c0.502,0.097,0.924,0.283,1.264,0.56c0.34,0.277,0.584,0.649,0.734,1.112c0.148,0.464,0.167,1.014,0.056,1.647
		c-0.086,0.49-0.281,1.188-0.585,2.092c-0.305,0.905-0.743,2.091-1.32,3.56c-0.576,1.47-1.018,2.67-1.327,3.604
		c-0.31,0.935-0.516,1.703-0.623,2.31c-0.183,1.038-0.231,1.884-0.145,2.541c0.085,0.656,0.262,1.165,0.531,1.523
		c0.268,0.36,0.602,0.589,1.003,0.688c0.4,0.099,0.839,0.107,1.315,0.025c1.337-0.229,2.77-0.753,4.299-1.573
		c1.527-0.82,2.95-1.693,4.267-2.617c1.543-1.074,3.08-2.26,4.605-3.556l-2.454,10.233c-0.86,0.623-1.832,1.318-2.92,2.093
		c-1.087,0.772-2.236,1.521-3.444,2.245s-2.447,1.369-3.714,1.936c-1.267,0.567-2.525,0.955-3.773,1.17
		c-2.229,0.381-3.951,0.25-5.164-0.396c-1.212-0.646-2.093-1.613-2.644-2.903c-0.551-1.29-0.863-2.788-0.937-4.495
		c-0.074-1.707-0.07-3.447,0.013-5.223l-0.713,0.122l-11.786,22.942c-0.615,1.195-1.173,2.191-1.673,2.99
		c-0.502,0.799-0.986,1.463-1.454,1.988c-0.467,0.527-0.941,0.923-1.419,1.188c-0.479,0.265-0.986,0.44-1.521,0.531
		c-1.219,0.209-2.155,0.125-2.809-0.252c-0.654-0.377-1.106-0.957-1.357-1.738c-0.252-0.781-0.349-1.703-0.292-2.76
		C91.423,147.774,91.553,146.667,91.756,145.515z"/>
	<path fill="#FFFFFF" stroke="#FFFFFF" stroke-width="2.6204" stroke-miterlimit="10" d="M177.296,129.259
		c-0.849,1.049-1.955,2.299-3.319,3.748c-1.365,1.449-2.862,2.863-4.49,4.244c-1.627,1.381-3.327,2.605-5.101,3.672
		c-1.774,1.066-3.479,1.739-5.112,2.019c-1.975,0.338-3.515,0.015-4.619-0.974c-1.104-0.987-1.932-2.555-2.482-4.703
		c-0.861,0.922-1.888,1.887-3.083,2.893c-1.194,1.008-2.473,1.952-3.834,2.835c-1.36,0.884-2.754,1.654-4.178,2.312
		c-1.425,0.66-2.811,1.104-4.159,1.334c-1.427,0.244-2.766,0.199-4.019-0.137s-2.305-0.945-3.159-1.83
		c-0.853-0.883-1.458-2.035-1.812-3.455c-0.355-1.42-0.363-3.09-0.024-5.01c0.38-2.154,1.083-4.42,2.112-6.797
		c1.027-2.375,2.432-4.998,4.214-7.866c1.782-2.868,3.597-5.394,5.447-7.577c1.848-2.183,3.797-4.146,5.844-5.888
		c2.047-1.744,4.141-3.209,6.278-4.396c2.138-1.188,4.238-1.958,6.302-2.311c0.688-0.118,1.203-0.079,1.545,0.117
		c0.343,0.196,0.611,0.439,0.806,0.731c0.194,0.291,0.384,0.577,0.567,0.856c0.182,0.28,0.439,0.461,0.772,0.545
		c0.333,0.085,0.683,0.117,1.048,0.096c0.366-0.02,0.745-0.063,1.133-0.13c0.329-0.055,0.666-0.121,1.012-0.194
		c0.348-0.074,0.687-0.139,1.015-0.195c0.449-0.077,0.858-0.104,1.233-0.084c0.373,0.021,0.683,0.152,0.931,0.392
		c0.245,0.241,0.405,0.609,0.478,1.105c0.069,0.496,0.025,1.196-0.134,2.099c-0.243,1.378-0.661,2.932-1.255,4.662
		c-0.593,1.729-1.238,3.511-1.931,5.337c-0.695,1.829-1.487,3.914-2.375,6.253c-0.888,2.34-1.47,4.282-1.741,5.828
		c-0.232,1.321-0.289,2.334-0.168,3.034c0.121,0.701,0.598,0.979,1.431,0.839c0.625-0.107,1.304-0.369,2.041-0.785
		c0.736-0.416,1.497-0.928,2.281-1.533c0.784-0.604,1.58-1.274,2.388-2.01c0.805-0.734,1.58-1.481,2.319-2.246
		c1.729-1.793,3.506-3.788,5.336-5.985L177.296,129.259z M139.643,132.413c-0.131,0.743-0.207,1.456-0.225,2.138
		c-0.02,0.681,0.057,1.272,0.228,1.776c0.17,0.505,0.449,0.89,0.836,1.154c0.386,0.266,0.921,0.34,1.605,0.224
		c1.103-0.189,2.183-0.824,3.239-1.906c1.058-1.08,2.029-2.33,2.912-3.75c0.887-1.416,1.652-2.856,2.302-4.318
		c0.647-1.462,1.112-2.667,1.396-3.616l5.803-14.626c-1.219,0.209-2.459,0.705-3.721,1.489c-1.263,0.784-2.496,1.765-3.697,2.939
		c-1.201,1.176-2.348,2.48-3.437,3.913c-1.089,1.436-2.216,3.166-3.38,5.194c-1.165,2.029-2.045,3.787-2.637,5.271
		C140.271,129.783,139.864,131.156,139.643,132.413z"/>
	<path fill="#FFFFFF" stroke="#FFFFFF" stroke-width="2.6204" stroke-miterlimit="10" d="M173.438,131.546
		c0.336-1.904,0.842-4.121,1.521-6.655c0.677-2.533,1.457-5.323,2.34-8.368c0.884-3.045,1.759-5.802,2.626-8.27
		c0.867-2.469,1.659-4.588,2.375-6.362c0.561-1.381,1.389-2.6,2.481-3.653s2.444-1.718,4.049-1.993
		c1.604-0.274,2.636,0.011,3.093,0.855c0.456,0.845,0.545,2.06,0.266,3.645c-0.076,0.433-0.225,1.024-0.443,1.775
		c-0.219,0.75-0.473,1.576-0.762,2.479c-0.289,0.903-0.59,1.834-0.903,2.796c-0.313,0.963-0.644,2.053-0.988,3.272
		c-0.345,1.22-0.614,2.132-0.807,2.738c-0.194,0.606-0.308,1.01-0.343,1.212l0.892-0.152c0.233-0.348,0.606-0.907,1.118-1.68
		c0.51-0.773,1.135-1.865,1.875-3.277c0.738-1.413,1.488-2.681,2.249-3.803c0.761-1.122,1.475-2.195,2.146-3.218
		c0.67-1.023,1.276-1.932,1.82-2.723c0.543-0.792,0.949-1.379,1.219-1.76c1.225-1.719,2.497-2.971,3.818-3.757
		c1.32-0.785,2.724-1.304,4.21-1.558c1.485-0.254,2.562,0.149,3.226,1.21c0.662,1.06,0.807,2.657,0.43,4.791
		c-0.055,0.317-0.217,0.861-0.481,1.634c-0.267,0.772-0.595,1.695-0.985,2.769c-0.391,1.073-0.857,2.454-1.4,4.14
		s-1.032,3.196-1.469,4.529c-0.438,1.333-0.834,2.645-1.191,3.937c-0.357,1.292-0.63,2.471-0.818,3.537
		c-0.314,1.788-0.345,3.219-0.087,4.293c0.259,1.074,0.878,1.526,1.858,1.359c0.355-0.061,0.884-0.276,1.584-0.647
		c1.042-0.514,1.72-0.923,2.033-1.229c1.479-1.203,2.248-1.796,2.302-1.777c0.084,0.013,1.183-0.733,3.292-2.241
		c2.637-1.877,5.793-4.165,9.469-6.861l-1.753,9.693l-2.519,2.025c-0.204,0.175-1.733,1.162-4.588,2.965
		c-4.121,2.605-6.691,4.191-7.715,4.758c-2.496,1.406-4.039,2.229-4.629,2.469c-1.568,0.715-3.169,1.213-4.804,1.492
		s-2.808-0.631-3.519-2.732c-0.709-2.1-0.676-5.355,0.102-9.768c0.305-1.729,0.753-3.616,1.344-5.66
		c0.592-2.044,1.268-4.25,2.032-6.617l-0.714,0.122l-15.646,24.483c-0.838,1.316-1.648,2.238-2.434,2.764
		c-0.818,0.561-1.719,0.923-2.7,1.091c-1.219,0.208-2.153,0.124-2.809-0.254c-0.655-0.376-1.107-0.956-1.358-1.737
		s-0.348-1.703-0.292-2.761C173.104,133.804,173.234,132.699,173.438,131.546z"/>
	<path fill="#FFFFFF" d="M252.544,108.794c0.082-0.231,1.149-3.352,1.967-4.904c1.025-1.949,2.175-3.835,3.312-5.72
		c3.397-5.624,6.895-11.15,9.803-17.054c1.479-3.001,2.958-6.003,4.437-9.004c0.612-1.245,1.24-2.482,1.802-3.751
		c1.509-3.408,2.614-6.984,3.321-10.643c0.75-3.894,1.781-8.362,0.328-12.22c-0.507-1.333,0.457,1.218,0,0
		c-0.527-1.388-1.502-2.636-2.854-3.294c-1.438-0.701-3.111-0.597-4.628-0.233c-3.477,0.834-6.446,3.105-8.975,5.546
		c-5.312,5.129-9.358,11.708-12.412,18.388c-1.478,3.233-2.77,6.558-4.129,9.842c-0.551,1.328-1.121,2.651-1.617,4.001
		c-0.621,1.692-1.145,3.419-1.592,5.166c-0.229,0.891-0.438,1.787-0.629,2.687c-0.919,0.265-1.826,0.574-2.717,0.924
		c-6.798,2.678-12.422,7.778-16.509,13.754c-4.188,6.128-8.604,12.746-8.829,20.438c-0.083,2.858,0.477,5.967,2.484,8.133
		c2.023,2.181,4.945,2.732,7.795,2.328c3.145-0.449,6.037-1.912,8.699-3.584c2.836-1.777,5.412-3.922,7.849-6.209
		c-0.431,11.088,8.644,17.399,12.099,17.498c3.492,0.101,6.747-1.992,9.586-3.808c3.184-2.036,6.206-4.325,9.131-6.715
		c1.688-1.38,3.555-2.694,4.861-4.468c1.566-2.124,2.223-5.129,0.977-7.585c-0.939-1.852-2.994-1.883-4.621-0.874
		c-1.311,0.812-2.428,2.011-3.61,2.995c-1.397,1.163-2.815,2.298-4.276,3.38c-1.492,1.104-2.332,1.684-3.968,2.567
		c-0.673,0.362-2.052,1.218-2.797,1.407c-0.302,0.077-0.241,0.104-0.758,0.118C256.072,127.9,248.463,128.279,252.544,108.794z
		 M266.87,57.122c-1.013,5.729-3.2,11.072-5.669,16.305c-2.262,4.794-4.547,9.569-7.038,14.251c1.13-4.882,2.423-9.773,3.897-14.562
		c1.238-4.018,2.977-7.871,4.592-11.748c0.404-0.969,0.834-1.925,1.344-2.844c0.713-1.284,1.677-3.045,3.098-3.646
		C267.132,55.626,266.999,56.391,266.87,57.122C266.669,58.257,267.088,55.882,266.87,57.122z M239.145,97.968
		c-0.526,3.353-1.076,6.705-1.568,10.063c-0.09,0.618-0.178,1.238-0.248,1.858c-0.043,0.385-0.083,0.771-0.109,1.157
		c-0.037,0.523-0.101,0.773-0.385,1.229c-0.965,1.546-2.023,3.051-3.232,4.417c-1.14,1.286-2.59,2.821-4.293,3.32
		c-0.686,0.201-1.516,0.288-2.228,0.198c-0.659-0.083-0.972-0.278-0.972-0.972c0-1.551,0.748-3.242,1.342-4.642
		c0.615-1.452,1.322-2.867,2.045-4.269c1.222-2.372,2.467-4.75,4.07-6.893C235.133,101.34,237.039,99.52,239.145,97.968
		C239.128,98.073,237.982,98.825,239.145,97.968z"/>
</g>
<g>
	<path fill="#FFFFFF" d="M53.263,227.875c-3.115,0-6.207-1.328-8.363-3.904c-3.864-4.614-3.255-11.487,1.361-15.353
		c0.846-0.708,21.118-17.521,55.75-32.731c20.272-8.903,41.355-15.443,62.663-19.438c26.682-5.002,53.782-6.006,80.551-2.985
		c5.98,0.676,9.071,2.438,8.396,8.42c-0.676,5.982-4.857,5.437-10.842,4.765c-106.756-12.054-181.781,58.062-182.526,58.685
		C58.213,227.041,55.73,227.875,53.263,227.875z"/>
</g>
<path fill="#FFFFFF" d="M102.218,31.602c0,0,4.589,3.266,6.854,3.266c2.266,0,6.85-3.266,6.85-3.266s-3.265,4.584-3.266,6.852
	c0,2.268,3.266,6.852,3.266,6.852s-4.66-3.265-6.85-3.266c-2.189,0-6.854,3.266-6.854,3.266s3.266-4.455,3.265-6.763
	C105.484,36.235,102.218,31.602,102.218,31.602z"/>
<path fill="#FFFFFF" d="M212.465,190.281c0,0,0.936,5.554,2.537,7.155c1.602,1.603,7.152,2.534,7.152,2.534
	s-5.551,0.934-7.154,2.536c-1.604,1.604-2.535,7.154-2.535,7.154s-0.986-5.604-2.535-7.152c-1.548-1.548-7.155-2.538-7.155-2.538
	s5.459-0.84,7.091-2.473C211.498,195.866,212.465,190.281,212.465,190.281z"/>
<path fill="#FFFFFF" d="M135.07,43.454c0,0,0.468,2.777,1.269,3.578s3.576,1.267,3.576,1.267s-2.775,0.467-3.577,1.268
	c-0.802,0.802-1.268,3.577-1.268,3.577s-0.493-2.802-1.268-3.576c-0.774-0.774-3.578-1.269-3.578-1.269s2.729-0.42,3.545-1.237
	C134.587,46.246,135.07,43.454,135.07,43.454z"/>
<path fill="#FFFFFF" d="M189.659,220.778c0,0-1.632,2.295-1.633,3.428c-0.001,1.134,1.633,3.425,1.633,3.425
	s-2.292-1.633-3.427-1.634c-1.133,0.001-3.426,1.634-3.426,1.634s1.633-2.33,1.633-3.426c0-1.094-1.633-3.428-1.633-3.428
	s2.228,1.634,3.382,1.634S189.659,220.778,189.659,220.778z"/>
</svg>
