<?xml version="1.0" encoding="utf-8"?>
<!-- Generator: Adobe Illustrator 15.0.0, SVG Export Plug-In . SVG Version: 6.00 Build 0)  -->
<!DOCTYPE svg PUBLIC "-//W3C//DTD SVG 1.1//EN" "http://www.w3.org/Graphics/SVG/1.1/DTD/svg11.dtd">
<svg version="1.1" id="Layer_1" xmlns="http://www.w3.org/2000/svg" xmlns:xlink="http://www.w3.org/1999/xlink" x="0px" y="0px"
	 width="282px" height="230.922px" viewBox="0 0 282 230.922" enable-background="new 0 0 282 230.922" xml:space="preserve">
<path d="M382.037,662.098l-4.057-4.06c-0.025-0.022-0.057-0.034-0.082-0.056c-0.02-0.022-0.028-0.051-0.049-0.073l-23.801-23.805
	l19.195-19.198c0.012-0.01,0.016-0.025,0.025-0.037c0.047-0.055,0.088-0.117,0.122-0.184c0.034-0.059,0.065-0.112,0.086-0.174
	l6.104-14.365c0.164-0.385,0.076-0.829-0.223-1.122c-0.298-0.293-0.744-0.373-1.125-0.202l-14.139,6.299
	c-0.062,0.021-0.119,0.055-0.178,0.089c-0.066,0.034-0.129,0.075-0.184,0.122c-0.012,0.01-0.027,0.014-0.038,0.025l-19.194,19.197
	l-2.855-2.855l-3.742-3.742l3.254-3.252c0.189-0.191,0.297-0.449,0.297-0.719c0-0.268-0.107-0.526-0.297-0.717l-14.624-14.627
	c-0.396-0.396-1.038-0.396-1.436,0l-3.253,3.254l-3.741-3.743c-0.381-0.381-1.055-0.381-1.436,0l-8.112,8.116
	c-0.396,0.396-0.396,1.038,0,1.435l4.453,4.454c0.002,0.001,0.002,0.004,0.004,0.006l19.084,19.086
	c0.002,0.002,0.004,0.003,0.006,0.004l2.851,2.852l-22.735,22.736l-3.587,3.588c-0.19,0.19-0.298,0.447-0.298,0.718
	s0.107,0.527,0.298,0.718l8.113,8.113c0.198,0.197,0.458,0.297,0.718,0.297s0.52-0.1,0.718-0.297l3.587-3.586
	c0.002-0.002,0.002-0.004,0.004-0.006l22.729-22.732l23.799,23.805c0.022,0.021,0.054,0.032,0.078,0.052
	c0.019,0.023,0.028,0.055,0.05,0.077l4.059,4.058c0.198,0.198,0.457,0.297,0.717,0.297c0.261,0,0.52-0.099,0.718-0.297l8.116-8.113
	c0.189-0.19,0.297-0.448,0.297-0.718S382.227,662.287,382.037,662.098z M321.049,664.238l-1.729-1.73l50.017-50.023l1.73,1.731
	L321.049,664.238z M364.387,607.536l1.73,1.73l-50.016,50.024l-1.73-1.73L364.387,607.536z M374.619,606.641l-2.448,5.758
	l-5.985-5.986l5.677-2.528L374.619,606.641z M315.168,611.445l6.678-6.682l17.65,17.653l-6.681,6.68L315.168,611.445z
	 M336.47,616.521l-1.598-1.599l2.533-2.536l1.601,1.601L336.47,616.521z M325.816,600.797l10.871,10.873l-2.533,2.536
	l-10.872-10.875L325.816,600.797z M317.389,600.307l3.034,3.035l-6.688,6.67l-3.026-3.025L317.389,600.307z M334.25,630.532
	l6.68-6.68l2.137,2.137l-6.678,6.681L334.25,630.532z M310.785,661.147l2.151-2.152l6.679,6.679l-2.151,2.151L310.785,661.147z
	 M352.615,635.539l23.081,23.087l-6.679,6.681l-23.082-23.088L352.615,635.539z M373.203,669.492l-2.621-2.623l6.682-6.68
	l2.621,2.625L373.203,669.492z"/>
<text transform="matrix(1 0 0 1 308.2598 684.9053)" font-family="'HelveticaNeue-Bold'" font-size="3.7037">Created by Michela Tannoia</text>
<text transform="matrix(1 0 0 1 308.2598 688.6094)" font-family="'HelveticaNeue-Bold'" font-size="3.7037">from the Noun Project</text>
<g id="wyRTDd_1_">
	
		<image overflow="visible" width="288" height="288" id="wyRTDd" xlink:href="11356C35.jpg"  transform="matrix(0.2679 0 0 0.2679 427.416 667.1084)">
	</image>
</g>
<g>
	<path d="M254.167,740.481c0.178,1.599,2.146,4.009,1.523,3.564s-1.243-1.243-2.487-3.731c-2.292-0.37-10.01-5.725-12.55-7.522
		l10.624,10.625c0.483-0.355,1.126-0.301,1.568,0.142l5.425,5.425c0.488,0.488,0.488,1.279,0,1.768
		c-0.489,0.489-1.28,0.489-1.769,0.001l-5.425-5.425c-0.435-0.436-0.456-1.099-0.114-1.586l-10.585-10.584
		c1.982,2.812,7.117,10.265,7.476,12.485c2.487,1.243,3.287,1.865,3.731,2.487s-1.966-1.346-3.564-1.523
		c0,0,3.027,6.175,5.541,8.429c2.513,2.254,5.619,2.955,6.506,3.288c0.425,0.499,0.666,0.666,0.591,0.813
		c-0.074,0.147-0.185,0.517,0.369,1.071c0.555,0.555,1.997,0.332,1.997,0.332c0.406,0.406,1.775,2.548,2.146,3.325
		c0.369,0.776,1.57,3.274,1.607,3.422c0.223,0.259,0.352,0.572,0.444,0.48c0.092-0.092,0.424-0.203,0.424-0.203l7.297,7.268
		l7.45-7.429l-7.268-7.297c0,0,0.111-0.332,0.203-0.424s-0.222-0.222-0.479-0.444c-0.148-0.037-2.646-1.238-3.423-1.607
		c-0.776-0.369-2.919-1.739-3.325-2.146c0,0,0.223-1.442-0.332-1.996c-0.554-0.555-0.923-0.444-1.07-0.37
		c-0.148,0.075-0.314-0.166-0.813-0.591c-0.333-0.887-1.035-3.992-3.289-6.506S254.167,740.481,254.167,740.481z"/>
	<path stroke="#000000" stroke-miterlimit="10" d="M333.261,818.666c3.124,3.124,5.248,6.066,2.124,9.19l0,0
		c-3.124,3.124-6.066,1.001-9.19-2.123l-57.485-53.238c-3.124-3.124-1-6.066,2.124-9.19l0,0c3.124-3.124,6.066-5.247,9.19-2.123
		L333.261,818.666z"/>
</g>
<path fill="#FFFFFF" d="M391.206,840.559c-0.021-0.109-0.046-0.236-0.056-0.374c-0.079-0.131-0.995-2.746-1.284-3.557
	c-0.288-0.811-0.834-3.294-0.834-3.868c0,0,1.178-0.863,1.177-1.646c0.001-0.784-0.338-0.967-0.495-1.019
	c-0.158-0.052-0.104-0.34-0.157-0.993c0.392-0.862,2.091-3.555,2.274-6.926s-2.042-9.878-2.042-9.878
	c-1.005,1.256-1.317,4.352-1.443,3.598c-0.125-0.755,0-1.759,0.88-4.397c-1.358-1.883-3.03-11.126-3.555-14.193l-0.001,15.025
	c0.594,0.09,1.009,0.583,1.009,1.209v7.672c0,0.69-0.559,1.25-1.249,1.25c-0.692,0-1.252-0.56-1.252-1.25v-7.672
	c0.001-0.615,0.455-1.1,1.041-1.202l-0.001-14.969c-0.587,3.391-2.226,12.291-3.542,14.114c0.88,2.638,1.005,3.644,0.879,4.397
	c-0.125,0.754-0.438-2.342-1.442-3.598c0,0-2.226,6.507-2.042,9.878c0.183,3.371,1.884,6.063,2.275,6.926
	c-0.053,0.653,0,0.941-0.158,0.993c-0.156,0.052-0.495,0.234-0.496,1.019c0,0.784,1.178,1.646,1.178,1.646
	c0,0.574-0.547,3.057-0.834,3.868c-0.288,0.811-1.205,3.426-1.283,3.557c-0.011,0.139-0.037,0.267-0.058,0.377
	c-1.638,0.735-2.76,2.108-2.76,4.671l0.001,58.278c0,5.072,4.388,5.497,8.5,5.497s8.499-0.425,8.499-5.498l0.001-58.276
	C393.936,842.671,392.828,841.297,391.206,840.559z"/>
<path d="M184.169,656.589c-0.021-0.109-0.046-0.236-0.056-0.374c-0.079-0.131-0.995-2.746-1.284-3.557
	c-0.288-0.811-0.834-3.294-0.834-3.868c0,0,1.178-0.863,1.177-1.646c0.001-0.784-0.338-0.967-0.495-1.019
	c-0.158-0.052-0.104-0.34-0.157-0.993c0.392-0.862,2.091-3.555,2.274-6.926s-2.042-9.878-2.042-9.878
	c-1.005,1.256-1.317,4.352-1.443,3.598c-0.125-0.755,0-1.759,0.88-4.397c-1.358-1.883-3.03-11.126-3.555-14.193l-0.001,15.025
	c0.594,0.09,1.009,0.583,1.009,1.209v7.672c0,0.69-0.559,1.25-1.249,1.25c-0.692,0-1.252-0.56-1.252-1.25v-7.672
	c0.001-0.615,0.455-1.1,1.041-1.202l-0.001-14.969c-0.587,3.391-2.226,12.291-3.542,14.114c0.88,2.638,1.005,3.644,0.879,4.397
	c-0.125,0.754-0.438-2.342-1.442-3.598c0,0-2.226,6.507-2.042,9.878c0.183,3.371,1.884,6.063,2.275,6.926
	c-0.053,0.653,0,0.941-0.158,0.993c-0.156,0.052-0.495,0.234-0.496,1.019c0,0.784,1.178,1.646,1.178,1.646
	c0,0.574-0.547,3.057-0.834,3.868c-0.288,0.811-1.205,3.426-1.283,3.557c-0.011,0.139-0.037,0.267-0.058,0.377
	c-1.638,0.735-2.76,2.108-2.76,4.671l0.001,25.252c0,5.072,4.388,5.497,8.5,5.497s8.499-0.425,8.499-5.498l0.001-25.25
	C186.898,658.701,185.791,657.327,184.169,656.589z"/>
<path d="M204.923,700.303"/>
<path d="M210.653,694.087l-0.003-78.347l-0.001-16.096l-0.002-1.334c0.001-0.017-0.01-0.034-0.011-0.052
	c-0.007-0.086-0.024-0.174-0.053-0.258c-0.021-0.079-0.039-0.149-0.073-0.22l-6.962-17.251c-0.186-0.463-0.635-0.764-1.134-0.758
	c-0.498,0.004-0.942,0.312-1.119,0.777l-6.606,17.225c-0.035,0.071-0.054,0.146-0.075,0.225c-0.027,0.085-0.045,0.172-0.052,0.257
	c-0.001,0.019-0.012,0.035-0.011,0.054l0.002,1.333l0.003,16.096l0.001,78.355l0.001,6.047c0,0.321,0.126,0.627,0.354,0.855
	c0.229,0.228,0.536,0.354,0.856,0.354h13.675c0.333,0,0.637-0.135,0.855-0.354s0.354-0.522,0.355-0.855v-6.046
	C210.654,694.091,210.653,694.09,210.653,694.087z M200.192,590.187h4.646l2.789,6.915h-10.09L200.192,590.187z M208.235,698.93
	h-11.258v-3.627h11.258V698.93z"/>
<rect x="127.584" y="648.326" width="27.833" height="36.197"/>
<rect x="127.584" y="612.299" width="27.833" height="36.197"/>
<path d="M-345.312,258.629l0.002-53.145c0-5.361-2.331-8.253-5.744-9.807c-0.044-0.23-0.097-0.498-0.116-0.788
	c-0.168-0.275-2.096-5.779-2.704-7.486c-0.605-1.705-1.756-6.933-1.756-8.142c0,0,2.479-1.816,2.478-3.465
	c0.001-1.65-0.711-2.034-1.042-2.144c-0.334-0.109-0.22-0.715-0.332-2.09c0.824-1.815,4.401-7.483,4.788-14.578
	c0.386-7.095-4.299-20.79-4.299-20.79c-2.114,2.643-2.771,9.158-3.037,7.572c-0.264-1.589,0-3.702,1.852-9.256
	c-2.858-3.963-6.378-23.418-7.481-29.874l-0.002,31.624c1.25,0.19,2.123,1.229,2.123,2.546v16.147c0,1.453-1.175,2.631-2.629,2.631
	c-1.456,0-2.636-1.178-2.636-2.631v-16.147c0.003-1.295,0.959-2.313,2.192-2.53l-0.002-31.506
	c-1.236,7.137-4.685,25.87-7.456,29.707c1.853,5.552,2.115,7.669,1.851,9.256c-0.264,1.586-0.921-4.93-3.036-7.572
	c0,0-4.685,13.695-4.298,20.79c0.385,7.096,3.965,12.763,4.789,14.578c-0.111,1.375,0,1.981-0.333,2.09
	c-0.33,0.109-1.042,0.494-1.044,2.145c0,1.649,2.479,3.466,2.479,3.466c0,1.208-1.151,6.433-1.756,8.142
	c-0.606,1.705-2.536,7.209-2.7,7.484c-0.023,0.292-0.078,0.562-0.121,0.794c-3.447,1.548-5.81,4.438-5.81,9.831l0.002,53.15
	L-345.312,258.629z"/>
<path d="M-295.903,258.648c0-0.009-0.002-0.011-0.002-0.017l-0.005-150.626l-0.002-33.878l-0.004-2.807
	c0.002-0.035-0.022-0.072-0.022-0.109c-0.016-0.181-0.053-0.366-0.112-0.543c-0.042-0.167-0.082-0.314-0.154-0.462l-14.652-36.309
	c-0.391-0.975-1.336-1.607-2.387-1.595c-1.049,0.008-1.983,0.656-2.355,1.636l-13.906,36.254c-0.072,0.15-0.112,0.308-0.157,0.473
	c-0.059,0.179-0.095,0.362-0.109,0.54c-0.002,0.04-0.023,0.075-0.021,0.114l0.004,2.806l0.006,33.877l0.001,150.644
	 M-317.922,54.221h9.778l5.871,14.555h-21.236L-317.922,54.221z"/>
<path d="M-396.691,258.648c0-0.009-0.002-0.011-0.002-0.017l-0.004-21.918l-0.002-33.877l-0.004-2.808
	c0.002-0.035-0.022-0.071-0.022-0.109c-0.016-0.181-0.053-0.365-0.113-0.543c-0.042-0.166-0.082-0.313-0.154-0.461l-14.653-36.31
	c-0.39-0.975-1.335-1.607-2.386-1.595c-1.049,0.007-1.983,0.655-2.355,1.636l-13.906,36.254c-0.073,0.149-0.113,0.308-0.158,0.473
	c-0.059,0.179-0.095,0.361-0.109,0.54c-0.002,0.039-0.024,0.074-0.022,0.113l0.004,2.806l0.006,33.878l0.001,21.935
	L-396.691,258.648z M-418.71,182.93h9.779l5.871,14.555h-21.236L-418.71,182.93z M-401.781,261.19"/>
<polygon fill="#020202" points="-448.495,269.619 -448.495,197.959 -362.997,251.37 -277.433,197.959 -277.433,269.619 "/>
<polygon fill="none" stroke="#020202" stroke-width="6" stroke-linecap="round" stroke-linejoin="round" stroke-miterlimit="10" points="
	-277.435,268.014 -277.435,129.51 -362.933,176.177 -448.497,129.51 -448.497,268.014 "/>
<path d="M-97.296,378.603l0.002-53.145c0-5.361-2.331-8.253-5.744-9.807c-0.044-0.23-0.097-0.498-0.116-0.788
	c-0.168-0.275-2.096-5.779-2.704-7.486c-0.605-1.705-1.756-6.933-1.756-8.142c0,0,2.479-1.816,2.478-3.465
	c0.001-1.65-0.711-2.034-1.042-2.144c-0.334-0.109-0.22-0.715-0.332-2.09c0.824-1.815,4.401-7.483,4.788-14.578
	c0.386-7.095-4.299-20.79-4.299-20.79c-2.114,2.643-2.771,9.158-3.037,7.572c-0.264-1.589,0-3.702,1.852-9.256
	c-2.858-3.963-6.378-23.418-7.481-29.874l-0.002,31.624c1.25,0.19,2.123,1.229,2.123,2.546v16.147c0,1.453-1.175,2.631-2.629,2.631
	c-1.456,0-2.636-1.178-2.636-2.631v-16.147c0.003-1.295,0.959-2.313,2.192-2.53l-0.002-31.506
	c-1.236,7.137-4.685,25.87-7.456,29.707c1.853,5.552,2.115,7.669,1.851,9.256c-0.264,1.586-0.921-4.93-3.036-7.572
	c0,0-4.685,13.695-4.298,20.79c0.385,7.096,3.965,12.763,4.789,14.578c-0.111,1.375,0,1.981-0.333,2.09
	c-0.33,0.109-1.042,0.494-1.044,2.145c0,1.649,2.479,3.466,2.479,3.466c0,1.208-1.151,6.433-1.756,8.142
	c-0.606,1.705-2.536,7.209-2.7,7.484c-0.023,0.292-0.078,0.562-0.121,0.794c-3.447,1.548-5.81,4.438-5.81,9.831l0.002,53.15
	L-97.296,378.603z"/>
<path d="M-37.881,378.622c0-0.009-0.002-0.011-0.002-0.017l-0.005-150.626l-0.002-33.878l-0.004-2.808
	c0.002-0.035-0.022-0.071-0.022-0.108c-0.016-0.181-0.053-0.366-0.112-0.543c-0.042-0.167-0.082-0.313-0.154-0.462l-14.652-36.31
	c-0.391-0.975-1.336-1.607-2.387-1.595c-1.049,0.008-1.983,0.656-2.355,1.636l-13.906,36.254c-0.072,0.149-0.112,0.308-0.157,0.473
	c-0.059,0.179-0.095,0.362-0.109,0.54c-0.002,0.039-0.023,0.074-0.021,0.113l0.004,2.807l0.006,33.877l0.001,150.644
	 M-59.899,174.194h9.778l5.871,14.555h-21.236L-59.899,174.194z"/>
<path d="M-156.681,378.622c0-0.009-0.002-0.011-0.002-0.017l-0.004-21.918l-0.002-33.877l-0.004-2.808
	c0.002-0.035-0.022-0.071-0.022-0.109c-0.016-0.181-0.053-0.365-0.113-0.543c-0.042-0.166-0.082-0.313-0.154-0.461l-14.653-36.31
	c-0.39-0.975-1.335-1.607-2.386-1.595c-1.049,0.007-1.983,0.655-2.355,1.636l-13.906,36.254c-0.073,0.149-0.113,0.308-0.158,0.473
	c-0.059,0.179-0.095,0.361-0.109,0.54c-0.002,0.039-0.024,0.074-0.022,0.113l0.004,2.806l0.006,33.878l0.001,21.935
	L-156.681,378.622z M-178.7,302.903h9.779l5.871,14.555h-21.236L-178.7,302.903z M-161.771,381.164"/>
<polygon fill="#020202" points="-221.495,422.619 -221.495,373.976 -115.032,374.347 -8.486,373.976 -8.486,422.619 "/>
<polygon fill="none" stroke="#020202" stroke-width="8.9271" stroke-linecap="round" stroke-linejoin="round" stroke-miterlimit="10" points="
	-8.488,421.014 -8.488,366.574 -114.951,319.169 -221.497,366.574 -221.497,421.014 "/>
<path fill="#FFFFFF" d="M249.443,198.436l-12.159-12.167c-0.077-0.068-0.17-0.104-0.245-0.168c-0.061-0.066-0.086-0.152-0.147-0.22
	l-71.342-71.353l57.538-57.544c0.034-0.031,0.046-0.078,0.075-0.111c0.142-0.166,0.264-0.353,0.365-0.551
	c0.104-0.175,0.196-0.337,0.259-0.523l18.297-43.059c0.492-1.151,0.229-2.483-0.666-3.361c-0.894-0.878-2.232-1.118-3.373-0.607
	l-42.38,18.883c-0.188,0.063-0.357,0.164-0.532,0.265c-0.2,0.104-0.387,0.224-0.551,0.366c-0.035,0.031-0.082,0.043-0.114,0.077
	l-57.534,57.541l-8.559-8.558l-11.218-11.218l9.753-9.748c0.571-0.571,0.891-1.344,0.891-2.152c0-0.803-0.321-1.579-0.891-2.151
	L83.076,8.234c-1.188-1.187-3.113-1.187-4.303,0l-9.751,9.752L57.809,6.766c-1.142-1.141-3.162-1.141-4.303,0L29.191,31.092
	c-1.188,1.188-1.188,3.114,0,4.301l13.348,13.352c0.004,0.003,0.004,0.011,0.012,0.017l57.201,57.21
	c0.005,0.004,0.014,0.007,0.019,0.012l8.544,8.546l-68.148,68.151l-10.751,10.755c-0.572,0.57-0.893,1.342-0.893,2.152
	c0,0.81,0.322,1.579,0.893,2.151l24.319,24.318c0.596,0.591,1.373,0.891,2.152,0.891c0.777,0,1.557-0.3,2.151-0.891l10.751-10.749
	c0.004-0.006,0.006-0.011,0.013-0.017l68.129-68.14l71.336,71.354c0.066,0.063,0.161,0.096,0.234,0.155
	c0.055,0.069,0.084,0.163,0.149,0.231l12.165,12.161c0.595,0.596,1.37,0.891,2.148,0.891c0.781,0,1.557-0.295,2.151-0.891
	l24.328-24.318c0.568-0.57,0.891-1.345,0.891-2.151C250.334,199.777,250.012,199.005,249.443,198.436z M66.634,204.854l-5.185-5.187
	L211.373,49.723l5.187,5.189L66.634,204.854z M196.537,34.891l5.187,5.188L51.807,190.023l-5.189-5.187L196.537,34.891z
	 M227.209,32.206l-7.338,17.258l-17.942-17.942l17.017-7.578L227.209,32.206z M49.005,46.608L69.021,26.58l52.908,52.916
	l-20.025,20.021L49.005,46.608z M112.857,61.823l-4.789-4.792l7.594-7.602l4.796,4.798L112.857,61.823z M80.926,14.688
	l32.585,32.593l-7.593,7.602l-32.59-32.598L80.926,14.688z M55.662,13.221l9.097,9.098L44.708,42.31l-9.07-9.065L55.662,13.221z
	 M106.203,103.821l20.025-20.022l6.405,6.404l-20.02,20.025L106.203,103.821z M35.868,195.589l6.45-6.453l20.018,20.02l-6.448,6.449
	L35.868,195.589z M161.253,118.829l69.185,69.201l-20.02,20.025l-69.188-69.205L161.253,118.829z M222.964,220.601l-7.856-7.861
	l20.028-20.022l7.856,7.868L222.964,220.601z"/>
</svg>
