<?xml version="1.0" encoding="utf-8"?>
<!-- Generator: Adobe Illustrator 15.0.0, SVG Export Plug-In . SVG Version: 6.00 Build 0)  -->
<!DOCTYPE svg PUBLIC "-//W3C//DTD SVG 1.1//EN" "http://www.w3.org/Graphics/SVG/1.1/DTD/svg11.dtd">
<svg version="1.1" id="Layer_1" xmlns="http://www.w3.org/2000/svg" xmlns:xlink="http://www.w3.org/1999/xlink" x="0px" y="0px"
	 width="266px" height="118.5px" viewBox="0 0 266 118.5" enable-background="new 0 0 266 118.5" xml:space="preserve">
<g>
	<path opacity="0.52" fill="#685665" enable-background="new    " d="M200.002,111.648c-5.012,0-23.699,0.051-31.136-6.439
		c-7.626-6.66-18.606-20.042-19.146-47.238c0-12.168-1.435-16.82,9.842-20.758c11.271-3.936,30.957-6.979,41.515-6.979
		s35.069,1.253,38.469,9.126c3.401,7.873,1.433,17.715,1.433,17.715s-4.312,33.254-12.705,41.87
		C216.623,110.902,203.4,111.648,200.002,111.648z"/>
	<g>
		<ellipse fill="#F9F9F9" cx="250.193" cy="41.115" rx="5.598" ry="2.043"/>
		<path opacity="0.52" fill="#685665" enable-background="new    " d="M60.762,111.648c5.01,0,23.7,0.051,31.136-6.439
			c7.627-6.66,18.607-20.042,19.145-47.238c0-12.168,1.433-16.82-9.841-20.758c-11.275-3.936-30.956-6.979-41.513-6.979
			c-10.558,0-35.073,1.253-38.473,9.126c-3.399,7.873-1.43,17.715-1.43,17.715s4.312,33.254,12.705,41.87
			C44.14,110.902,57.362,111.648,60.762,111.648z"/>
		<ellipse fill="#F9F9F9" cx="11.366" cy="41.115" rx="5.598" ry="2.043"/>
	</g>
</g>
<path fill="#FFFFFF" d="M24.552,47.979c0.019,0.113,0.068,0.204,0.15,0.27c0.081,0.067,0.183,0.119,0.304,0.157
	c0.122,0.04,0.258,0.068,0.408,0.089s0.303,0.042,0.461,0.065c0.157,0.023,0.312,0.051,0.465,0.087
	c0.152,0.035,0.292,0.086,0.418,0.154c0.126,0.066,0.234,0.155,0.322,0.265c0.088,0.109,0.146,0.249,0.175,0.42
	c0.026,0.155,0.025,0.307-0.003,0.454c-0.028,0.148-0.077,0.288-0.146,0.421c-0.07,0.135-0.157,0.262-0.263,0.381
	c-0.105,0.121-0.222,0.23-0.352,0.33c-0.128,0.101-0.266,0.188-0.413,0.271c-0.146,0.079-0.297,0.145-0.449,0.198
	c-0.215,0.074-0.428,0.121-0.64,0.139c-0.211,0.018-0.405,0.001-0.581-0.049c-0.175-0.051-0.324-0.14-0.446-0.266
	c-0.123-0.126-0.201-0.296-0.237-0.51c-0.018-0.111-0.017-0.213,0.005-0.31c0.022-0.097,0.053-0.182,0.097-0.255
	c0.043-0.075,0.093-0.138,0.151-0.188c0.057-0.05,0.111-0.084,0.166-0.103c0.054-0.02,0.104-0.021,0.146-0.003
	c0.042,0.017,0.068,0.057,0.078,0.121c0.005,0.029,0.007,0.062,0.006,0.097c-0.001,0.035-0.001,0.073-0.003,0.115
	s-0.001,0.086,0,0.135c0.001,0.049,0.007,0.101,0.015,0.156c0.02,0.12,0.066,0.215,0.135,0.283c0.069,0.069,0.154,0.116,0.254,0.142
	c0.101,0.024,0.212,0.03,0.335,0.017c0.122-0.014,0.247-0.042,0.375-0.086c0.149-0.052,0.295-0.122,0.439-0.211
	c0.143-0.088,0.268-0.188,0.375-0.3c0.106-0.112,0.188-0.232,0.246-0.36c0.057-0.128,0.074-0.259,0.052-0.391
	c-0.02-0.123-0.072-0.221-0.154-0.293c-0.082-0.073-0.185-0.132-0.307-0.176c-0.122-0.045-0.26-0.078-0.411-0.102
	s-0.306-0.048-0.462-0.072c-0.156-0.023-0.311-0.052-0.464-0.085c-0.153-0.034-0.292-0.081-0.416-0.141
	c-0.125-0.062-0.232-0.14-0.318-0.238s-0.142-0.225-0.168-0.38c-0.024-0.145-0.013-0.3,0.034-0.465
	c0.046-0.165,0.13-0.328,0.252-0.488c0.12-0.16,0.28-0.311,0.478-0.452c0.198-0.143,0.438-0.263,0.719-0.36
	c0.179-0.062,0.358-0.097,0.538-0.103c0.18-0.006,0.346,0.017,0.496,0.068c0.15,0.052,0.277,0.131,0.382,0.239
	c0.104,0.107,0.17,0.244,0.197,0.41c0.016,0.099,0.016,0.205,0.001,0.32c-0.016,0.115-0.053,0.242-0.108,0.379
	c-0.054,0.134-0.119,0.242-0.195,0.324c-0.077,0.083-0.15,0.136-0.218,0.159c-0.051,0.019-0.096,0.018-0.134-0.001
	c-0.037-0.018-0.062-0.057-0.072-0.118c-0.007-0.045-0.006-0.102,0.005-0.17c0.01-0.068,0.034-0.15,0.072-0.248
	c0.034-0.091,0.057-0.174,0.068-0.249c0.012-0.074,0.013-0.14,0.003-0.196c-0.014-0.087-0.051-0.156-0.109-0.206
	c-0.058-0.05-0.132-0.083-0.224-0.098c-0.091-0.016-0.197-0.014-0.318,0.005c-0.12,0.018-0.25,0.051-0.391,0.101
	c-0.153,0.054-0.286,0.118-0.395,0.193c-0.107,0.075-0.195,0.154-0.263,0.237c-0.066,0.083-0.114,0.165-0.14,0.247
	C24.547,47.836,24.54,47.91,24.552,47.979z"/>
<path fill="#FFFFFF" d="M30.046,49.038c-0.149,0.153-0.282,0.289-0.399,0.405c-0.117,0.118-0.222,0.218-0.315,0.303
	c-0.093,0.083-0.176,0.149-0.249,0.201c-0.076,0.052-0.145,0.089-0.208,0.11c-0.129,0.045-0.25,0.046-0.363,0.001
	c-0.112-0.045-0.214-0.13-0.306-0.256c-0.092-0.126-0.171-0.289-0.24-0.489c-0.069-0.2-0.125-0.433-0.169-0.699
	c-0.017-0.104-0.031-0.215-0.042-0.335c-0.011-0.12-0.02-0.24-0.022-0.361c-0.054,0.01-0.095,0.017-0.125,0.021
	c-0.029,0.003-0.061,0.007-0.094,0.011c-0.034,0.004-0.075,0.012-0.126,0.021c-0.049,0.01-0.123,0.025-0.218,0.046
	c-0.043,0.009-0.077,0.009-0.102,0c-0.025-0.009-0.044-0.022-0.059-0.04c-0.014-0.019-0.023-0.04-0.029-0.063
	c-0.005-0.023-0.01-0.043-0.013-0.061c-0.005-0.027,0.009-0.054,0.04-0.08c0.032-0.025,0.073-0.052,0.125-0.077
	c0.052-0.025,0.108-0.05,0.171-0.073s0.123-0.043,0.181-0.062c0.059-0.019,0.111-0.035,0.156-0.05
	c0.046-0.015,0.077-0.028,0.094-0.037c0.008-0.248,0.029-0.493,0.064-0.735c0.035-0.242,0.083-0.463,0.144-0.663
	c0.06-0.201,0.134-0.37,0.222-0.508c0.087-0.139,0.189-0.229,0.303-0.268c0.075-0.026,0.145-0.029,0.213-0.009
	c0.068,0.02,0.129,0.057,0.184,0.111c0.055,0.054,0.101,0.123,0.14,0.207s0.066,0.176,0.083,0.276
	c0.014,0.083,0.016,0.174,0.007,0.274c-0.008,0.1-0.025,0.205-0.051,0.314c-0.026,0.11-0.058,0.223-0.098,0.341
	c-0.039,0.117-0.082,0.234-0.128,0.352c0.015-0.011,0.041-0.021,0.077-0.03c0.036-0.009,0.079-0.021,0.126-0.037
	c0.047-0.015,0.099-0.031,0.154-0.049c0.056-0.017,0.109-0.035,0.161-0.051c0.052-0.016,0.101-0.031,0.145-0.045
	c0.045-0.014,0.082-0.024,0.112-0.033c0.035-0.01,0.062,0,0.085,0.031c0.021,0.032,0.037,0.075,0.045,0.131
	c0.011,0.064,0.002,0.122-0.025,0.174c-0.027,0.052-0.062,0.086-0.104,0.101l-0.99,0.346c-0.04,0.086-0.079,0.171-0.119,0.255
	c-0.039,0.084-0.076,0.16-0.11,0.229c0.011,0.109,0.022,0.216,0.034,0.321c0.006,0.046,0.012,0.093,0.018,0.141
	c0.006,0.048,0.012,0.095,0.018,0.143c0.007,0.047,0.013,0.092,0.019,0.135c0.006,0.043,0.012,0.083,0.019,0.12
	c0.016,0.093,0.037,0.168,0.065,0.226c0.027,0.059,0.062,0.102,0.101,0.13c0.04,0.029,0.084,0.044,0.134,0.045
	c0.05,0.002,0.105-0.007,0.164-0.026c0.036-0.014,0.081-0.037,0.131-0.074c0.052-0.036,0.107-0.08,0.167-0.133
	c0.059-0.053,0.122-0.112,0.186-0.178c0.065-0.066,0.128-0.137,0.189-0.209c0.062-0.074,0.121-0.149,0.175-0.225
	c0.055-0.077,0.104-0.152,0.145-0.227L30.046,49.038z M28.677,46.05c-0.002-0.02-0.008-0.04-0.014-0.062s-0.016-0.042-0.027-0.06
	c-0.013-0.019-0.029-0.03-0.05-0.038c-0.02-0.007-0.046-0.005-0.08,0.006c-0.045,0.016-0.084,0.07-0.116,0.165
	c-0.033,0.095-0.06,0.211-0.082,0.348c-0.022,0.137-0.04,0.286-0.052,0.446c-0.012,0.16-0.022,0.314-0.031,0.464
	c0.026-0.006,0.053-0.013,0.079-0.02c0.027-0.007,0.053-0.014,0.082-0.022c0.037-0.104,0.076-0.218,0.115-0.338
	s0.073-0.238,0.101-0.351c0.03-0.114,0.051-0.218,0.066-0.313C28.683,46.181,28.686,46.105,28.677,46.05z"/>
<path fill="#FFFFFF" d="M32.544,48.102c-0.031,0.07-0.073,0.154-0.127,0.251c-0.053,0.098-0.115,0.195-0.187,0.292
	s-0.151,0.186-0.237,0.266c-0.087,0.08-0.178,0.137-0.272,0.17c-0.114,0.039-0.215,0.036-0.303-0.011
	c-0.089-0.045-0.172-0.128-0.25-0.247c-0.034,0.062-0.077,0.129-0.13,0.2c-0.052,0.07-0.111,0.138-0.175,0.203
	c-0.066,0.065-0.136,0.125-0.209,0.177c-0.073,0.053-0.15,0.094-0.227,0.12c-0.083,0.029-0.166,0.04-0.25,0.033
	c-0.084-0.006-0.162-0.031-0.232-0.074c-0.07-0.042-0.131-0.103-0.183-0.182c-0.051-0.078-0.087-0.175-0.106-0.29
	c-0.021-0.129-0.025-0.269-0.01-0.417c0.014-0.148,0.045-0.315,0.095-0.5c0.05-0.184,0.109-0.349,0.177-0.495
	s0.147-0.279,0.236-0.401c0.089-0.122,0.188-0.229,0.294-0.319c0.106-0.091,0.219-0.157,0.339-0.199
	c0.039-0.014,0.072-0.017,0.097-0.009c0.025,0.008,0.046,0.02,0.064,0.034c0.019,0.015,0.036,0.029,0.053,0.044
	c0.017,0.014,0.037,0.022,0.059,0.023c0.022,0.002,0.045,0,0.066-0.005c0.022-0.005,0.045-0.011,0.067-0.019
	c0.019-0.006,0.038-0.014,0.058-0.021c0.02-0.008,0.039-0.015,0.058-0.022c0.026-0.009,0.05-0.014,0.074-0.018
	c0.024-0.003,0.045,0.002,0.065,0.014c0.02,0.011,0.038,0.031,0.052,0.059c0.015,0.028,0.026,0.069,0.036,0.123
	c0.013,0.083,0.02,0.177,0.02,0.283c-0.001,0.107-0.003,0.216-0.008,0.329c-0.005,0.114-0.01,0.243-0.016,0.387
	c-0.006,0.144-0.001,0.263,0.014,0.355c0.013,0.08,0.03,0.138,0.053,0.178c0.022,0.04,0.057,0.051,0.105,0.034
	c0.036-0.013,0.073-0.035,0.109-0.066c0.036-0.032,0.072-0.069,0.108-0.112c0.035-0.043,0.07-0.09,0.104-0.141
	c0.034-0.051,0.066-0.102,0.095-0.154c0.069-0.122,0.137-0.255,0.204-0.401L32.544,48.102z M30.299,48.669
	c0.007,0.045,0.018,0.087,0.03,0.126c0.013,0.04,0.03,0.074,0.051,0.101s0.045,0.047,0.075,0.059c0.03,0.012,0.063,0.01,0.104-0.004
	c0.063-0.021,0.117-0.07,0.16-0.144c0.042-0.073,0.076-0.155,0.101-0.247c0.024-0.091,0.042-0.183,0.051-0.273
	c0.009-0.091,0.012-0.166,0.01-0.224l0.052-0.907c-0.071,0.024-0.136,0.065-0.197,0.124c-0.061,0.059-0.117,0.128-0.166,0.208
	c-0.05,0.081-0.092,0.168-0.129,0.262s-0.07,0.206-0.1,0.335c-0.03,0.129-0.047,0.24-0.053,0.333
	C30.283,48.511,30.286,48.595,30.299,48.669z"/>
<path fill="#FFFFFF" d="M32.355,48.273c-0.019-0.114-0.034-0.248-0.044-0.402c-0.012-0.153-0.022-0.323-0.031-0.509
	c-0.009-0.186-0.013-0.354-0.01-0.506c0.002-0.152,0.006-0.283,0.013-0.393c0.006-0.085,0.032-0.165,0.077-0.237
	c0.045-0.072,0.114-0.125,0.207-0.157c0.093-0.032,0.162-0.027,0.207,0.018c0.046,0.044,0.077,0.113,0.093,0.208
	c0.004,0.026,0.007,0.062,0.01,0.107c0.002,0.046,0.003,0.097,0.004,0.152c0.001,0.055,0.001,0.112,0.002,0.171
	c0,0.059,0.003,0.125,0.008,0.2c0.003,0.074,0.006,0.13,0.006,0.167c0.001,0.038,0.002,0.062,0.004,0.074l0.052-0.018
	c0.007-0.023,0.018-0.059,0.034-0.109c0.015-0.05,0.031-0.12,0.047-0.209c0.016-0.089,0.036-0.17,0.059-0.243
	c0.023-0.073,0.045-0.143,0.064-0.209c0.021-0.066,0.039-0.125,0.056-0.176c0.017-0.052,0.03-0.09,0.038-0.115
	c0.04-0.112,0.091-0.198,0.156-0.256c0.065-0.06,0.141-0.104,0.226-0.134c0.086-0.029,0.161-0.017,0.223,0.038
	c0.062,0.055,0.104,0.146,0.125,0.273c0.003,0.02,0.004,0.052,0.004,0.1c0,0.048-0.001,0.104-0.003,0.171
	c-0.001,0.066-0.001,0.151,0,0.254c0.002,0.104,0.003,0.196,0.004,0.277s0.003,0.162,0.009,0.241
	c0.005,0.078,0.012,0.149,0.023,0.213c0.018,0.107,0.046,0.19,0.084,0.25s0.086,0.08,0.143,0.06c0.02-0.007,0.048-0.025,0.084-0.054
	c0.053-0.041,0.086-0.071,0.099-0.092c0.065-0.085,0.1-0.127,0.104-0.127c0.006,0,0.058-0.054,0.155-0.164
	c0.124-0.136,0.27-0.3,0.438-0.495c0,0,0.219-0.145,0.248,0.159c0.018,0.189-0.153,0.421-0.153,0.421l-0.112,0.143
	c-0.009,0.012-0.082,0.085-0.221,0.219c-0.198,0.193-0.323,0.312-0.374,0.355c-0.125,0.107-0.202,0.17-0.233,0.19
	c-0.082,0.057-0.169,0.102-0.264,0.135c-0.095,0.033-0.186-0.008-0.273-0.123c-0.087-0.115-0.153-0.303-0.197-0.567
	c-0.017-0.104-0.028-0.217-0.035-0.342c-0.006-0.125-0.01-0.259-0.013-0.404l-0.041,0.014l-0.45,1.581
	c-0.024,0.085-0.055,0.146-0.092,0.186c-0.039,0.041-0.087,0.071-0.144,0.09c-0.07,0.025-0.13,0.03-0.178,0.015
	c-0.047-0.016-0.087-0.045-0.119-0.087c-0.032-0.042-0.057-0.095-0.076-0.157C32.381,48.408,32.366,48.342,32.355,48.273z"/>
<path fill="#FFFFFF" d="M35.903,43.792c-0.037,0.278-0.076,0.492-0.116,0.641c-0.041,0.149-0.081,0.233-0.119,0.251
	c-0.053,0.024-0.097-0.066-0.132-0.271c-0.035-0.2-0.048-0.387-0.042-0.562c0.007-0.174,0.03-0.337,0.07-0.489
	c0.039-0.152,0.094-0.29,0.163-0.415c0.068-0.125,0.147-0.239,0.237-0.342c0.089-0.102,0.188-0.192,0.293-0.271
	c0.106-0.077,0.218-0.144,0.334-0.198c0.136-0.062,0.275-0.11,0.418-0.14c0.143-0.031,0.283-0.045,0.419-0.042
	c0.138,0.002,0.267,0.021,0.392,0.057c0.124,0.036,0.236,0.087,0.335,0.153c0.099,0.066,0.182,0.151,0.249,0.251
	c0.067,0.1,0.112,0.217,0.134,0.349c0.027,0.157,0.034,0.322,0.02,0.494c-0.014,0.171-0.053,0.339-0.118,0.503
	c-0.065,0.163-0.158,0.315-0.278,0.459c-0.121,0.142-0.274,0.259-0.461,0.354c0.12-0.056,0.229-0.071,0.329-0.047
	c0.101,0.024,0.19,0.078,0.27,0.161c0.08,0.083,0.147,0.196,0.204,0.337s0.099,0.292,0.126,0.452
	c0.021,0.126,0.033,0.259,0.035,0.399s-0.007,0.279-0.028,0.418c-0.02,0.139-0.052,0.275-0.095,0.409
	c-0.043,0.134-0.1,0.259-0.168,0.375c-0.069,0.116-0.152,0.221-0.248,0.314c-0.096,0.093-0.205,0.169-0.33,0.226
	c-0.077,0.037-0.162,0.067-0.25,0.091c-0.09,0.024-0.181,0.043-0.275,0.058c-0.093,0.014-0.185,0.021-0.277,0.023
	c-0.092,0.002-0.18,0-0.263-0.008c-0.036,0.002-0.069-0.003-0.1-0.018c-0.03-0.014-0.051-0.055-0.062-0.123
	c-0.059-0.342-0.114-0.695-0.165-1.058c-0.051-0.363-0.091-0.728-0.12-1.094c-0.029-0.366-0.04-0.691-0.031-0.976
	c0.009-0.285,0.04-0.572,0.096-0.863c0.068-0.14,0.137-0.226,0.208-0.258c0.087-0.041,0.175,0.009,0.263,0.149
	c-0.033,0.154-0.056,0.318-0.068,0.493c-0.013,0.175-0.018,0.329-0.018,0.46c0.001,0.131,0.008,0.291,0.022,0.478
	c0.015,0.188,0.032,0.369,0.052,0.545c0.01,0.1,0.023,0.21,0.039,0.331c0.017,0.12,0.033,0.238,0.049,0.354
	c0.015,0.115,0.032,0.229,0.049,0.343c0.018,0.113,0.035,0.221,0.053,0.325c0.003,0.016,0.007,0.039,0.012,0.068
	c0.005,0.029,0.011,0.059,0.02,0.088c0.008,0.03,0.017,0.057,0.026,0.081c0.009,0.023,0.02,0.04,0.031,0.047
	c0.081,0.008,0.166,0.007,0.255-0.003c0.089-0.01,0.176-0.035,0.26-0.074c0.103-0.047,0.198-0.114,0.287-0.202
	c0.089-0.088,0.162-0.195,0.221-0.322c0.059-0.127,0.099-0.274,0.119-0.439c0.02-0.166,0.011-0.36-0.027-0.585
	c-0.021-0.121-0.051-0.214-0.091-0.283c-0.041-0.068-0.086-0.119-0.138-0.153c-0.052-0.034-0.108-0.055-0.168-0.062
	c-0.061-0.006-0.122-0.01-0.184-0.009c-0.061,0-0.122,0.001-0.181,0.002s-0.113-0.008-0.162-0.027
	c-0.05-0.019-0.092-0.05-0.128-0.094s-0.062-0.113-0.078-0.204c-0.007-0.043-0.012-0.081-0.015-0.113
	c-0.002-0.033,0-0.062,0.008-0.088c0.008-0.026,0.023-0.048,0.043-0.069c0.021-0.021,0.05-0.04,0.088-0.059
	c0.052-0.023,0.1-0.042,0.144-0.055c0.043-0.013,0.09-0.03,0.14-0.053c0.115-0.054,0.216-0.126,0.301-0.218
	c0.085-0.092,0.153-0.194,0.205-0.306c0.052-0.112,0.086-0.231,0.103-0.357c0.017-0.125,0.015-0.25-0.007-0.375
	c-0.014-0.081-0.041-0.15-0.08-0.206c-0.039-0.056-0.088-0.099-0.148-0.129c-0.059-0.031-0.125-0.051-0.2-0.062
	c-0.074-0.009-0.154-0.009-0.238,0c-0.083,0.009-0.17,0.027-0.261,0.055c-0.09,0.027-0.18,0.063-0.271,0.104
	c-0.146,0.067-0.257,0.128-0.335,0.183c-0.107,0.072-0.205,0.152-0.293,0.24c-0.088,0.089-0.163,0.185-0.225,0.289
	S35.926,43.687,35.903,43.792z"/>
<path fill="#FFFFFF" d="M42.036,44.244c-0.03,0.07-0.072,0.154-0.125,0.251c-0.054,0.098-0.116,0.195-0.188,0.292
	c-0.072,0.097-0.15,0.185-0.237,0.265c-0.086,0.08-0.177,0.137-0.272,0.169C41.1,45.263,41,45.259,40.911,45.213
	c-0.088-0.046-0.172-0.128-0.25-0.247c-0.034,0.062-0.076,0.129-0.129,0.199c-0.052,0.071-0.111,0.139-0.176,0.204
	s-0.135,0.124-0.209,0.177c-0.073,0.053-0.149,0.093-0.228,0.12c-0.082,0.029-0.166,0.04-0.25,0.033
	c-0.083-0.007-0.161-0.031-0.231-0.073s-0.132-0.103-0.184-0.182c-0.051-0.079-0.086-0.175-0.105-0.29
	c-0.021-0.129-0.025-0.267-0.012-0.416c0.014-0.148,0.045-0.315,0.095-0.5c0.05-0.185,0.109-0.35,0.177-0.495
	c0.069-0.146,0.147-0.279,0.236-0.401c0.09-0.123,0.188-0.229,0.295-0.319c0.106-0.091,0.219-0.157,0.338-0.198
	c0.039-0.014,0.072-0.017,0.097-0.009c0.025,0.008,0.047,0.019,0.065,0.034s0.036,0.03,0.053,0.044
	c0.018,0.014,0.037,0.022,0.059,0.024c0.022,0.001,0.044,0,0.067-0.006c0.022-0.004,0.044-0.011,0.067-0.019
	c0.019-0.006,0.038-0.014,0.058-0.022c0.02-0.007,0.039-0.015,0.059-0.022c0.025-0.008,0.05-0.014,0.073-0.017
	c0.023-0.002,0.045,0.002,0.064,0.013c0.021,0.012,0.038,0.032,0.053,0.059c0.014,0.028,0.026,0.069,0.035,0.124
	c0.014,0.083,0.021,0.177,0.021,0.283c-0.001,0.106-0.003,0.216-0.008,0.329c-0.005,0.113-0.011,0.242-0.016,0.387
	c-0.006,0.145-0.001,0.263,0.014,0.355c0.013,0.079,0.031,0.138,0.053,0.178c0.022,0.039,0.057,0.051,0.105,0.033
	c0.036-0.012,0.073-0.034,0.109-0.066c0.036-0.032,0.073-0.069,0.108-0.112c0.037-0.043,0.07-0.089,0.104-0.141
	c0.035-0.051,0.066-0.102,0.096-0.154c0.069-0.122,0.137-0.255,0.203-0.401L42.036,44.244z M39.791,44.813
	c0.008,0.044,0.018,0.086,0.03,0.126c0.013,0.04,0.03,0.073,0.051,0.1c0.021,0.028,0.046,0.047,0.075,0.059
	c0.03,0.012,0.064,0.01,0.104-0.003c0.063-0.021,0.117-0.07,0.159-0.145c0.043-0.074,0.076-0.156,0.101-0.247
	c0.025-0.091,0.042-0.183,0.051-0.274c0.01-0.092,0.013-0.166,0.012-0.225l0.052-0.907c-0.071,0.024-0.137,0.065-0.198,0.125
	c-0.061,0.058-0.116,0.127-0.166,0.208c-0.048,0.08-0.092,0.168-0.129,0.262c-0.037,0.094-0.07,0.206-0.1,0.335
	c-0.029,0.13-0.046,0.241-0.052,0.333C39.775,44.653,39.779,44.737,39.791,44.813z"/>
<path fill="#FFFFFF" d="M41.847,44.417c-0.019-0.114-0.034-0.248-0.044-0.401c-0.011-0.154-0.021-0.324-0.031-0.509
	c-0.009-0.185-0.012-0.354-0.01-0.506c0.001-0.152,0.006-0.284,0.014-0.394c0.006-0.085,0.031-0.165,0.076-0.237
	c0.045-0.072,0.114-0.125,0.207-0.157c0.093-0.033,0.163-0.026,0.208,0.018s0.076,0.114,0.091,0.208
	c0.005,0.026,0.008,0.062,0.01,0.107s0.004,0.096,0.005,0.151c0.001,0.055,0.001,0.113,0.002,0.171
	c0.001,0.06,0.003,0.125,0.007,0.2c0.004,0.074,0.007,0.13,0.008,0.167c0,0.037,0.002,0.062,0.004,0.074l0.052-0.018
	c0.007-0.022,0.018-0.059,0.033-0.108c0.015-0.05,0.032-0.12,0.047-0.209c0.015-0.089,0.036-0.17,0.059-0.243
	c0.023-0.073,0.045-0.143,0.065-0.209s0.038-0.125,0.055-0.176c0.017-0.052,0.03-0.09,0.038-0.115
	c0.04-0.112,0.092-0.198,0.156-0.257c0.066-0.059,0.14-0.104,0.226-0.133c0.086-0.03,0.161-0.018,0.224,0.038
	c0.063,0.055,0.104,0.145,0.125,0.273c0.003,0.019,0.005,0.052,0.005,0.1s-0.002,0.104-0.003,0.171
	c-0.001,0.067-0.001,0.151,0,0.254c0.001,0.104,0.003,0.196,0.004,0.278c0,0.082,0.004,0.162,0.009,0.24
	c0.004,0.079,0.012,0.15,0.023,0.214c0.018,0.107,0.046,0.19,0.084,0.25c0.038,0.059,0.085,0.079,0.143,0.061
	c0.021-0.007,0.048-0.025,0.083-0.054c0.054-0.041,0.087-0.071,0.1-0.092c0.066-0.085,0.101-0.127,0.105-0.126
	c0.005,0,0.058-0.054,0.155-0.164c0.123-0.136,0.27-0.301,0.439-0.495c0,0,0.151-0.114,0.205,0.062
	c0.07,0.232-0.111,0.517-0.111,0.517l-0.113,0.145c-0.008,0.012-0.082,0.085-0.22,0.218c-0.199,0.194-0.324,0.312-0.375,0.355
	c-0.124,0.106-0.201,0.17-0.232,0.19c-0.082,0.058-0.17,0.103-0.264,0.136c-0.095,0.033-0.186-0.008-0.273-0.122
	c-0.087-0.115-0.152-0.304-0.197-0.567c-0.017-0.104-0.029-0.217-0.034-0.342c-0.007-0.125-0.011-0.259-0.014-0.404l-0.041,0.015
	L42.5,44.57c-0.024,0.084-0.054,0.146-0.091,0.185c-0.04,0.041-0.087,0.071-0.143,0.09c-0.071,0.025-0.129,0.03-0.178,0.015
	c-0.048-0.015-0.088-0.044-0.12-0.087c-0.032-0.042-0.056-0.095-0.075-0.156C41.874,44.551,41.858,44.485,41.847,44.417z"/>
<ellipse transform="matrix(-0.8555 0.5179 -0.5179 -0.8555 88.8622 66.609)" fill="#FFFFFF" cx="35.136" cy="45.705" rx="0.607" ry="0.379"/>
<linearGradient id="SVGID_1_" gradientUnits="userSpaceOnUse" x1="-46.9438" y1="-36.9551" x2="-47.1835" y2="18.2121">
	<stop  offset="0.2515" style="stop-color:#AA3AF9"/>
	<stop  offset="1" style="stop-color:#4D58A6"/>
</linearGradient>
<path fill="url(#SVGID_1_)" d="M-19.498-64.744c-0.591-0.691-1.381-1.46-2.809-1.46c-3.061,0-9.065,3.524-22.375,18.915
	c-3.417,0.684-6.774,2.024-12.802,2.024c-0.383,0-0.771-0.005-1.174-0.016c-1.985-0.055-4.79-1.196-5.938-1.196
	c-0.233,0-0.394,0.045-0.471,0.156c-0.386,0.568,0.09,1.444,2.106,2.342c1.459,0.646,3.914,1.334,7.175,1.334
	c0.059,0,0.113,0,0.171,0c1.827-0.012,4.439-0.182,7.652-0.905c-3.477,4.504-21.415,29.906-21.117,32.959
	c0.129,1.314,0.31,1.476,0.611,1.785c0.306,0.311,0.639,0.419,0.943,0.419c0.597,0,1.087-0.399,1.087-0.399
	s17.037-24.449,32.246-27.18c-1.579,2.16-18.623,20.865-22.352,26.179c0,0-18.023,21.521-18.984,37.901
	c-0.425,7.211,0.025,7.865,1.045,8.121c0.181,0.046,0.34,0.074,0.48,0.074c0.875,0,0.969-1.17,1.553-6.82
	c0.438-4.229,6.937-17.611,8.819-20.586c13.275-20.985,21.194-27.135,28.028-34.688c6.747-7.452,11.76-10.293,7.936-13.028
	c-0.472-0.339-1.276-0.5-2.321-0.5c-4.485,0-13.463,2.924-20.517,7.002c2.156-2.682,7.293-10.487,9.396-13.079
	C-31.469-48.53-13.81-58.11-19.498-64.744z M-22.471-62.138c0.113,0,0.201,0.026,0.268,0.081
	c1.37,1.203-10.612,10.098-13.952,10.997C-36.155-51.059-24.726-62.138-22.471-62.138z"/>
<linearGradient id="SVGID_2_" gradientUnits="userSpaceOnUse" x1="130.5005" y1="107.417" x2="130.5005" y2="38.7209">
	<stop  offset="0" style="stop-color:#AA3AF9"/>
	<stop  offset="0.6405" style="stop-color:#D92E92"/>
	<stop  offset="0.9608" style="stop-color:#D92E92"/>
</linearGradient>
<path fill="url(#SVGID_2_)" d="M257.904,25.196c-0.99-6.143-34.723-6.287-56.646-6.156c-23.798,0.141-52.932,8.958-52.932,8.958
	l-17.832-0.125l-17.835,0.125c0,0-29.09-8.817-52.888-8.958C37.852,18.909,4.1,19.053,3.108,25.196
	C2.154,31.117,2.905,47.912,4.24,49.631c1.338,1.72,5.917,0.382,8.401,8.979c1.725,5.968,5.378,57.878,47.559,57.878
	c36.025,0,47.914-10.256,59.921-55.014c2.403-5.239,7.875-8.214,9.875-8.214c3,0,7.973,2.976,10.373,8.214
	c12.007,44.756,24.271,55.014,60.296,55.014c42.181,0,45.899-51.911,47.625-57.878c2.483-8.597,7.101-7.259,8.437-8.979
	C258.061,47.912,258.857,31.117,257.904,25.196z M111.042,57.971c-0.538,27.196-11.518,40.578-19.145,47.238
	c-7.436,6.49-26.126,6.439-31.136,6.439c-3.399,0-16.622-0.746-28.271-12.703c-8.392-8.615-12.704-41.869-12.704-41.869
	s-1.969-9.842,1.43-17.715c3.4-7.873,27.915-9.126,38.473-9.126c10.557,0,30.238,3.043,41.512,6.979
	C112.475,41.15,111.042,45.802,111.042,57.971z M240.977,57.076c0,0-4.312,33.254-12.705,41.871
	c-11.646,11.957-24.871,12.703-28.271,12.703c-5.012,0-23.7,0.05-31.136-6.44c-7.626-6.659-18.605-20.042-19.145-47.238
	c0-12.168-1.436-16.82,9.84-20.758c11.271-3.936,30.957-6.979,41.516-6.979c10.557,0,35.068,1.253,38.469,9.126
	S240.977,57.076,240.977,57.076z"/>
<g>
	<g>
		
			<linearGradient id="SVGID_3_" gradientUnits="userSpaceOnUse" x1="130.5005" y1="212.8721" x2="130.5005" y2="171.6982" gradientTransform="matrix(1 0 0 1 0 107.6855)">
			<stop  offset="0.2515" style="stop-color:#AA3AF9"/>
			<stop  offset="1" style="stop-color:#E52225"/>
		</linearGradient>
		<path fill="url(#SVGID_3_)" d="M257.904,132.881c-0.99-6.143-34.723-6.286-56.646-6.155c-23.798,0.142-52.932,8.958-52.932,8.958
			l-17.832-0.125l-17.835,0.125c0,0-29.09-8.816-52.888-8.958c-21.919-0.131-55.671,0.013-56.663,6.155
			c-0.954,5.922-0.203,22.717,1.132,24.436c1.338,1.721,5.917,0.383,8.401,8.979c1.725,5.969,5.378,57.879,47.559,57.879
			c36.025,0,47.914-10.256,59.921-55.014c2.403-5.238,7.875-8.214,9.875-8.214v-0.19v0.19c3,0,7.973,2.976,10.373,8.214
			c12.007,44.756,24.271,55.014,60.296,55.014c42.181,0,45.899-51.911,47.625-57.879c2.483-8.596,7.101-7.258,8.437-8.979
			C258.061,155.598,258.857,138.803,257.904,132.881z M111.042,165.656c-0.538,27.196-11.518,40.578-19.145,47.238
			c-7.436,6.49-26.126,6.439-31.136,6.439c-3.399,0-16.622-0.746-28.271-12.703c-8.392-8.615-12.704-41.869-12.704-41.869
			s-1.969-9.842,1.43-17.715c3.4-7.873,27.915-9.127,38.473-9.127c10.557,0,30.238,3.043,41.512,6.979
			C112.475,148.836,111.042,153.487,111.042,165.656z M240.977,164.762c0,0-4.312,33.254-12.705,41.871
			c-11.646,11.957-24.871,12.703-28.271,12.703c-5.012,0-23.7,0.05-31.136-6.44c-7.626-6.659-18.605-20.042-19.145-47.237
			c0-12.168-1.436-16.82,9.84-20.759c11.271-3.937,30.957-6.979,41.516-6.979c10.557,0,35.068,1.254,38.469,9.127
			S240.977,164.762,240.977,164.762z"/>
	</g>
	<g>
		
			<linearGradient id="SVGID_4_" gradientUnits="userSpaceOnUse" x1="4.5005" y1="212.8721" x2="4.5005" y2="171.6982" gradientTransform="matrix(1 0 0 -1 126 371.5)">
			<stop  offset="0.2515" style="stop-color:#AA3AF9"/>
			<stop  offset="1" style="stop-color:#E52225"/>
		</linearGradient>
		<path fill="url(#SVGID_4_)" d="M257.904,132.881c-0.99-6.143-34.723-6.286-56.646-6.155c-23.798,0.142-52.932,8.958-52.932,8.958
			l-17.832-0.125l-17.835,0.125c0,0-29.09-8.816-52.888-8.958c-21.919-0.131-55.671,0.013-56.663,6.155
			c-0.954,5.922-0.203,22.717,1.132,24.436c1.338,1.721,5.917,0.383,8.401,8.979c1.725,5.969,5.378,57.879,47.559,57.879
			c36.025,0,47.914-10.256,59.921-55.014c2.403-5.238,7.875-8.214,9.875-8.214v-0.19v0.19c3,0,7.973,2.976,10.373,8.214
			c12.007,44.756,24.271,55.014,60.296,55.014c42.181,0,45.899-51.911,47.625-57.879c2.483-8.596,7.101-7.258,8.437-8.979
			C258.061,155.598,258.857,138.803,257.904,132.881z M111.042,165.656c-0.538,27.196-11.518,40.578-19.145,47.238
			c-7.436,6.49-26.126,6.439-31.136,6.439c-3.399,0-16.622-0.746-28.271-12.703c-8.392-8.615-12.704-41.869-12.704-41.869
			s-1.969-9.842,1.43-17.715c3.4-7.873,27.915-9.127,38.473-9.127c10.557,0,30.238,3.043,41.512,6.979
			C112.475,148.836,111.042,153.487,111.042,165.656z M240.977,164.762c0,0-4.312,33.254-12.705,41.871
			c-11.646,11.957-24.871,12.703-28.271,12.703c-5.012,0-23.7,0.05-31.136-6.44c-7.626-6.659-18.605-20.042-19.145-47.237
			c0-12.168-1.436-16.82,9.84-20.759c11.271-3.937,30.957-6.979,41.516-6.979c10.557,0,35.068,1.254,38.469,9.127
			S240.977,164.762,240.977,164.762z"/>
	</g>
</g>
</svg>
