<?xml version="1.0" encoding="utf-8"?>
<!-- Generator: Adobe Illustrator 15.0.0, SVG Export Plug-In . SVG Version: 6.00 Build 0)  -->
<!DOCTYPE svg PUBLIC "-//W3C//DTD SVG 1.1//EN" "http://www.w3.org/Graphics/SVG/1.1/DTD/svg11.dtd">
<svg version="1.1" id="Layer_1" xmlns="http://www.w3.org/2000/svg" xmlns:xlink="http://www.w3.org/1999/xlink" x="0px" y="0px"
	 width="282px" height="230.922px" viewBox="0 0 282 230.922" enable-background="new 0 0 282 230.922" xml:space="preserve">
<g>
	<path fill="#FFFFFF" d="M537.857,89.2c-0.277-0.582-0.622-1.024-1.051-1.355c-0.372-0.289-0.82-0.428-1.372-0.428
		c-0.761,0-1.487,0.336-2.22,1.03c-0.823,0.78-1.562,1.801-2.198,3.034c-0.646,1.263-1.164,2.683-1.538,4.22
		c-0.372,1.537-0.562,3.305-0.562,5.252c0,0.955,0.094,1.862,0.273,2.705c0.172,0.795,0.441,1.492,0.799,2.076
		c0.336,0.543,0.774,0.969,1.33,1.299c0.545,0.319,1.195,0.476,1.984,0.476c0.559,0,1.142-0.325,1.734-0.968
		c0.713-0.764,1.35-1.758,1.894-2.948c0.557-1.214,1.009-2.714,1.346-4.455c0.343-1.75,0.517-3.327,0.517-4.688
		c0-1.072-0.082-2.074-0.242-2.976C538.397,90.594,538.164,89.829,537.857,89.2z"/>
	<path fill="#FFFFFF" d="M492.787,139.403c-0.561,1.627-0.291,2.075-0.258,2.121c0.1,0.137,0.438,0.152,0.581,0.152
		c0.488,0,0.925-0.061,1.296-0.176c0.329-0.106,0.626-0.293,0.913-0.568c0.343-0.329,0.642-0.695,0.894-1.086
		c0.263-0.404,0.549-0.992,0.855-1.75c0.321-0.803,0.609-1.589,0.859-2.365c0.256-0.789,0.58-1.84,0.967-3.154
		c0.208-0.672,0.361-1.416,0.462-2.221l0.368-3.047c-1.021,1.064-2.041,2.419-3.049,4.047
		C495.047,133.985,493.738,136.69,492.787,139.403z"/>
	<path fill="#FFFFFF" d="M618.232,52.174c0-5.6-4.539-10.139-10.139-10.139H430.371c-5.6,0-10.139,4.539-10.139,10.139v114.723
		c0,5.6,4.539,10.139,10.139,10.139h177.723c5.601,0,10.14-4.539,10.14-10.139L618.232,52.174L618.232,52.174z M547.229,101.592
		c-0.328,1.521-0.812,3.016-1.435,4.438c-0.623,1.428-1.396,2.787-2.305,4.034c-0.916,1.265-1.977,2.378-3.152,3.31
		c-1.182,0.933-2.494,1.684-3.898,2.231c-1.425,0.556-2.963,0.837-4.566,0.837c-2.32,0-4.347-0.525-6.021-1.555
		c-1.491-0.919-2.739-2.116-3.746-3.546c-0.209,0.204-0.395,0.422-0.605,0.62c-1.276,1.166-2.168,1.928-2.738,2.339
		c-0.174,0.125-1.057,0.817-2.648,2.083c-0.503,0.427-2.122,1.557-4.928,3.424c-0.458,0.301-0.786,0.914-0.979,1.82
		c-0.24,1.123-0.521,3.271-0.84,6.382c-0.144,0.918-0.228,1.586-0.26,2.054l-0.432,3.396c-0.135,1.086-0.383,2.344-0.734,3.742
		c-0.348,1.387-0.77,2.688-1.251,3.873c-0.491,1.199-1.136,2.398-1.922,3.568c-0.81,1.198-1.709,2.23-2.677,3.072
		c-0.998,0.865-2.209,1.572-3.604,2.1c-1.396,0.527-2.939,0.797-4.587,0.797c-1.321,0-2.567-0.152-3.705-0.455
		c-1.162-0.307-2.237-0.787-3.196-1.431c-1.004-0.667-1.832-1.588-2.463-2.731c-0.628-1.129-0.998-2.463-1.109-3.965
		c-0.207-2.769,0.55-5.711,2.25-8.748c0.914-1.625,1.552-2.748,1.92-3.377c0.373-0.634,0.96-1.55,1.755-2.742
		c0.812-1.188,1.669-2.274,2.552-3.234c1.715-1.932,3.135-3.491,4.252-4.67c1.074-1.131,2.354-2.35,3.805-3.627l0.307-1.684
		c-0.766,0.531-1.549,0.996-2.344,1.394c-2.909,1.455-5.758,1.508-8.396,0.38c-1.229-0.525-2.327-1.291-3.268-2.271
		c-0.938-0.98-1.695-2.183-2.25-3.57c-0.557-1.391-0.84-2.975-0.84-4.703c0-2.171,0.151-4.195,0.453-6.014l1.088-6.575
		c0.448-2.706,0.963-4.786,1.576-6.362c0.588-1.499,1.278-3.062,2.053-4.647c0.654-1.283,1.604-2.265,2.819-2.93
		c2.271-1.238,4.659-1.299,6.277-0.164c0.603,0.422,1.319,1.247,1.319,2.774c0,0.321-0.032,0.674-0.104,1.053
		c-0.073,0.381-0.188,0.777-0.358,1.204c-0.408,1.065-0.762,2.363-1.045,3.852l-2.371,12.37c-0.278,1.459-0.42,2.764-0.42,3.883
		c0,0.563,0.041,1.123,0.119,1.664c0.072,0.484,0.199,0.918,0.377,1.287c0.156,0.328,0.356,0.584,0.612,0.782
		c0.196,0.152,0.468,0.228,0.817,0.228c0.639,0,1.221-0.289,1.774-0.883c0.667-0.719,1.257-1.601,1.751-2.619
		c0.512-1.053,0.93-2.156,1.245-3.285c0.318-1.137,0.526-2.088,0.616-2.823l2.958-13.822c0.198-0.941,0.606-1.81,1.209-2.585
		c0.543-0.708,1.198-1.326,1.942-1.836c0.732-0.502,1.512-0.882,2.313-1.131c1.81-0.566,3.532-0.49,4.722,0.273
		c0.553,0.356,1.209,1.051,1.209,2.354c0,0.302-0.048,0.63-0.139,1.002l-2.129,12.201c-0.441,2.529-0.798,4.562-1.071,6.102
		c-0.518,3.034-1.043,6.26-1.579,9.678c0.202-0.139,0.408-0.281,0.616-0.428c0.82-0.584,1.746-1.381,2.759-2.369
		c1.031-1.008,2.196-2.285,3.463-3.801c0.303-0.365,0.621-0.754,0.943-1.164c-0.115-0.998-0.175-2-0.175-3
		c0-3.324,0.426-6.238,1.264-8.666c0.845-2.443,2.074-4.6,3.651-6.411c1.588-1.819,3.555-3.271,5.85-4.315
		c0.316-0.144,0.604-0.285,0.881-0.421c1.684-0.822,3.027-1.51,6.941-1.148c4.336,0.4,7.525,6.986,8.122,8.303
		c1.213,2.683,1.302,3.007,1.532,4.098l0.125,0.583c0.367,1.634,0.557,3.501,0.557,5.552
		C547.73,98.532,547.562,100.071,547.229,101.592z M565.244,109.836c-0.025,0.416-0.115,0.892-0.272,1.436
		c-0.148,0.523-0.384,1.09-0.701,1.676c-0.328,0.619-0.802,1.199-1.405,1.723c-0.602,0.521-1.354,0.953-2.238,1.277
		c-0.881,0.33-1.957,0.494-3.19,0.494c-0.989,0-1.903-0.119-2.722-0.354c-0.857-0.248-1.609-0.635-2.231-1.15
		c-0.642-0.533-1.146-1.214-1.495-2.027c-0.344-0.797-0.518-1.75-0.518-2.838c0-0.9,0.144-1.797,0.433-2.662
		c0.297-0.887,0.765-1.69,1.384-2.387c0.631-0.705,1.451-1.271,2.434-1.683c0.978-0.406,2.123-0.611,3.412-0.611
		c2.266,0,4.031,0.554,5.257,1.647c1.257,1.119,1.894,2.707,1.894,4.723C565.282,109.2,565.273,109.444,565.244,109.836z"/>
</g>
<path fill="none" stroke="#FFFFFF" stroke-width="15" stroke-linecap="round" stroke-miterlimit="10" d="M651.504,182.802
	c0-3.5-35.365-6.267-38.864-6.267H434.789c-3.5,0-48.158,2.767-48.158,6.267l0,0c0,3.5,2.836,3.733,6.336,3.733h252.201
	C648.668,186.536,651.504,186.302,651.504,182.802L651.504,182.802z"/>
<g>
	<path fill="#FFFFFF" d="M120.733,135.813v14.579l-51.819-22.463v-12.464l51.819-22.458v14.68l-36.107,13.91L120.733,135.813z"/>
	<path fill="#FFFFFF" d="M152.774,92.698l-14.426,59.391c-0.48,1.957-0.898,3.505-1.261,4.636c-0.36,1.137-0.91,2.023-1.646,2.651
		c-0.738,0.638-1.813,0.951-3.221,0.951c-3.502,0-5.256-1.514-5.256-4.532c0-0.791,0.346-2.764,1.032-5.92l14.373-59.393
		c0.757-3.16,1.476-5.322,2.16-6.489c0.688-1.168,2.026-1.752,4.023-1.752c1.715,0,3.027,0.413,3.938,1.238
		c0.908,0.824,1.363,1.958,1.363,3.399C153.854,87.942,153.493,89.882,152.774,92.698z"/>
	<path fill="#FFFFFF" d="M211.855,127.929l-51.82,22.563v-14.579l36.214-14.216l-36.214-14.011V93.211l51.82,22.356V127.929z"/>
</g>
<path fill="#FFFFFF" d="M245.208,9.314H35.561c-7.893,0-14.294,6.402-14.294,14.295v181.059c0,7.894,6.401,14.294,14.294,14.294
	h209.647c7.896,0,14.297-6.404,14.297-14.294V23.609C259.505,15.713,253.104,9.314,245.208,9.314z M209.472,18.843
	c5.255,0,9.529,4.274,9.529,9.531c0,5.254-4.274,9.529-9.529,9.529c-5.251,0-9.529-4.274-9.529-9.529
	C199.942,23.118,204.221,18.843,209.472,18.843z M183.268,18.843c5.255,0,9.529,4.274,9.529,9.531c0,5.254-4.274,9.529-9.529,9.529
	c-5.254,0-9.532-4.274-9.532-9.529C173.735,23.118,178.014,18.843,183.268,18.843z M245.208,204.668H35.561V47.432h209.647V204.668z
	 M235.679,37.903c-5.252,0-9.529-4.274-9.529-9.529c0-5.256,4.277-9.531,9.529-9.531c5.251,0,9.529,4.274,9.529,9.531
	C245.208,33.628,240.93,37.903,235.679,37.903z"/>
</svg>
